<?xml version="1.0" encoding="UTF-8"?>
<svg id="Layer_2" xmlns="http://www.w3.org/2000/svg" version="1.1" viewBox="0 0 256 256">
  <!-- Generator: Adobe Illustrator 30.3.0, SVG Export Plug-In . SVG Version: 2.1.3 Build 182)  -->
  <defs>
    <style>
      .st0 {
        fill: #459747;
      }

      .st0, .st1 {
        stroke: #000;
        stroke-miterlimit: 10;
        stroke-width: 4px;
      }

      .st2 {
        fill: #fdf8ec;
      }

      .st3 {
        fill: #ef6e24;
      }

      .st4 {
        fill: #f8b119;
      }

      .st5 {
        fill: #c52b28;
      }

      .st1 {
        fill: #e82b28;
      }
    </style>
  </defs>
  <g id="Brain">
    <path d="M184.4,67.9c3.4.6,11.1,3.6,14.3,5.2,9.6,4.9,18.5,16.3,22,26.5,1,3.1,1.4,8.3,2.5,10.6s5.5,5.2,7.1,7.2c10.1,12.9,12.6,34.5-.6,46.2-1.1,1-3.1,1.3-3.9,2.6s-1.5,5.1-2.5,7.3c-5,10.6-15.9,17.3-26.7,20.9-1.7.6-5.4.9-6.3,1.5s-3.5,7.5-4.9,9.4c-4.1,5.3-11,7.8-17.6,8.4s-17.9-1.7-21.7,6.3c-1.3,2.9-.7,7.7-4.3,8.1-11.1,1.3-7.4-3-8.2-10.7-1.3-11.4-9-20.8-20.5-22.4-14.4-2.1-22.1-.5-32.5-13.1-1.4-1.7-4.9-8.2-5.3-8.5-.9-.5-8.8-1.9-10.3-2-10.1-.3-19.4,4.6-31.2,3.2-20.4-2.4-32.4-26.5-22.4-44.4,1.8-3.1,6.3-6.3,7.2-8.4s1.6-9.1,2.8-12.9c3.2-10.1,10.3-18.9,19.7-23.9,3.5-1.8,11.9-3.9,13.8-5.4s3.2-4.7,4.9-6.5c12.7-13.9,34.4-19.5,52.4-13.7,1.5.5,4.1,2.6,5.4,2.5s3-1.7,4.4-2.1c15.2-4.7,28.9-3.2,42.5,5,1.1.6,1.9,2.1,2.8,2.4,3.4,1,12.5,0,17.1.8Z"/>
    <path class="st2" d="M192.6,137.4c-1.1-1.5.3-5.7.2-7.7-.5-12.8-14.4-15.6-24.2-10.5-5.9,3-5.5,7.8-9,10.5-4.6,3.6-10.6-2-15.1-3.8-14.3-5.6-29.1-4.1-36.6,10.6-35.2-1.7-31.8,46.4.9,47.9,12.7.6,24.6-3.6,36.5-5.2,10.9-1.4,21.7-.4,32.1,2.9,9,2.8,7.8,4.5,18.3,1.3,7.7-2.4,13.7-6.4,17.7-13.6,1.6-2.9,2.5-7.3,4.2-9.5,2.5-3.5,6.5-4,9-9.2,4.9-10.3,1.3-21.1-5.8-29.2-1.4-1.6-5.9-4.9-6.5-5.9-1.2-2-1.2-8-2-11-3.4-13.3-17.7-25.7-31.3-27.3-4.3-.5-11.8,1.1-14.8.5-1.6-.3-8.5-6.1-11.4-7.5-8.3-3.9-18.8-4.9-27.5-1.8-2.7,1-7,4.4-9.4,4.3-1.9,0-8-3.9-10.9-4.8-13-3.8-29.2,1.2-38.7,10.8-2.4,2.4-6.4,9.7-8.3,10.9-2.3,1.3-5.7.9-8.2,1.6-10.5,2.8-20.2,14.7-21.4,25.5-.3,2.9.5,6.7-.4,9.4-.8,2.4-3.6,3-5.2,4.5-13.1,12.3-3.9,31.7,13,33.2,9.8.9,15.9-3.1,24.1-3.3,3.5,0,8.5,2,11.4,1,3.2-1,1.5-5,2-7.8,1.8-11.1,7.8-20,18.6-23.7,3-1,8.1-.9,9.9-1.8.8-.4,4.5-5.4,6.2-6.8,9.8-7.8,22.1-7.5,33.5-4.2,2.8.8,9,3.9,10.9,4.1,2.5.2,4.2-6.5,4.1-8.7-.3-8.9-2.7-9.4-6.5-15.7-2.2-3.8-.5-7.7,4-6.6,5.5,1.4,9.9,15.4,9.6,20.7,10.7-4,22.2-4.1,29.9,5.5,3.7,4.6,7.1,15.1,3.2,20.1-1.5,1.9-5.2,1.8-6.3.3Z"/>
    <path d="M55.6,92.2c9.2,10,11.1,24.3,4.8,36.4s5.1,9.7,7.8,4.5c8.3-15.8,5.9-34.2-6.2-47.3-3.9-4.3-10.3,2.1-6.4,6.4h0Z"/>
    <path d="M205.6,156.3c2,3.5-1.4,5.9-4.4,6.7-8.9,2.5-17-.4-23.8-6.2-3.2,4.5-8.7,8.4-14.4,9.1-12.2,1.4-23.8-11.7-36.3-3.7-2.7,1.7-8.1,10.3-11.5,5.5-3.5-4.9,7.1-12.2,11.1-13.7,11.9-4.5,19.2-.2,29.5,4.3,6,2.7,16.3-1.7,18.3-8s-.8-9,3.3-9.7c5.7-1,4.4,5.5,5.3,9,1.3,5,8.1,7.1,12.8,6.6,2.3-.2,8.3-2.8,10,.2Z"/>
    <path d="M48.9,140.5c-6-1.5-8.9-7-7-12.9s-6.9-7.9-8.7-2.4c-3.3,10.5,2.7,21.2,13.3,23.9,5.6,1.4,8-7.2,2.4-8.7h0Z"/>
    <path d="M140.1,103.5c-1.3-8.8-7-16.9-15-21-9.4-4.8-20.5-1.4-29.7-6.3s-9.6,5-4.5,7.8c8.2,4.4,16.7,2.9,25.5,4.8s13.8,8.9,15,17.1c.8,5.7,9.5,3.3,8.7-2.4h0Z"/>
    <path d="M68.5,112.2c4.8,3.1,10.3,2.8,15.4.5s12.3-9.4,16.9-5.6,10.9-2.7,6.4-6.4-9.6-4.3-15-2.4-13.1,10-19.1,6.1-9.4,4.6-4.5,7.8h0Z"/>
    <path class="st2" d="M180.5,199.1c-2.4-.9-3.9-2.7-6.3-3.8-8.4-3.6-29.6-4.1-37.5.6s3.2,8.5,5.6,9.8c6.8,3.7,21.2,4.1,28.4,1.5s11-6.3,9.8-8.1Z"/>
  </g>
  <g id="Flames">
    <g id="Generative_Object">
      <path class="st3" d="M111.8,156.3c2.8,2.1,2,1.2,18.1,11.5,2.4,1.6,4.5,2.9,5.8,3.7l4.6,3.1c4.3,2.1,8.5,4.3,13.1,5.8l3.7,1.2c19.1,5.4,39.7,1.1,55.2-12.1,14-11.9,21-28.3,17.8-46.1l-3.1,6.4c-1.1,2.4-3.2,4.2-5.8,5.2-.6-19.4-9.9-34-27.2-42-.9-.4-1.7-.8-2.7-1.1l-4.4-1.4c7.2,8,13.2,18.1,11.8,29-2.3-2.4-4.7-4.4-7.7-5.6l-6.3-1.5c-.4.9.6,1.1,1.1,1.6,13.4,14.6,12.8,36.3-.9,50.4,0-.6.4-1,.7-1.4,3.7-4.7,5.7-10.2,6-16.1.4-10-5.2-18.4-13.7-23.6l-9.2-5.7c-11.1-6.9-18-18.9-15.7-32.3,3.7,5.5,7.2,11.1,13.5,10.1,3.5-.6,5.6-4,4.9-7.4-1.3-6.2-10.8-12.9-16-24.6-5.4-12.2-5.3-23.2,0-35.8l1.6,6.3c2.3,8.9,7.5,16.1,15,21.1l15.8,10.5c10.7,7.2,10.9,16,15.6,15,1.5-.3,2.3-1.5,2.7-2.8,2.2-6.1-3.8-15.1-9-19.9,23.1,7.1,33,26.6,31.4,49.6,6.6-6,6.8-14.4,7.2-22.4,8.2,12.6,11.8,26.7,11.5,41.3-.2,11.1-3.2,22.1-8.2,32.3l-2.1,3.7c-19.3,33.8-61.2,48-96.9,33.1-17.5-7.3-31.5-20.3-39.5-37.3-1-2-6-18.5-6-18.5h0c14.6,14.3,15.7,15.2,17.4,16.4Z"/>
      <path class="st4" d="M135.6,171.5l6.2,2.2c7.7,2.4,15.7,3.5,23.8,1.8,6.4-1.4,12.4-4.3,16.8-8.9l2.3-2.1c13.7-14.1,14.3-35.8.9-50.4-.5-.6-1.4-.7-1.1-1.6l6.3,1.5c3,1.3,5.4,3.2,7.7,5.6,1.4-10.9-4.5-21-11.8-29l4.4,1.4c1,.3,1.8.7,2.7,1.1,17.3,8,26.6,22.6,27.2,42,2.6-1,4.7-2.8,5.8-5.2l3.1-6.4c3.2,17.8-3.7,34.1-17.8,46.1s-36.1,17.5-55.2,12.1l-3.7-1.2c-4.6-1.5-8.8-3.6-13.1-5.8l-4.6-3.1Z"/>
    </g>
    <g id="Generative_Object1" data-name="Generative_Object">
      <path class="st3" d="M112.9,168.3c1.8,1.3,1.3.7,12,7.2,1.6,1,3,1.8,3.8,2.3l3.1,1.9c2.9,1.3,5.6,2.6,8.7,3.5l2.5.7c12.5,3.2,25.9,0,35.8-8.9,8.9-8,13.2-18.9,10.8-30.4l-1.9,4.3c-.7,1.6-2,2.8-3.7,3.5-.8-12.7-7.1-22-18.5-26.9-.6-.3-1.1-.5-1.8-.7l-2.9-.8c4.9,5.1,8.9,11.6,8.2,18.7-1.5-1.5-3.1-2.8-5.1-3.5l-4.2-.9c-.2.6.4.7.7,1,9,9.3,9,23.5.3,32.9,0-.4.2-.6.5-1,2.3-3.1,3.5-6.8,3.6-10.6.1-6.6-3.7-11.9-9.3-15.2l-6.1-3.5c-7.4-4.3-12.1-12-10.8-20.8,2.5,3.5,4.9,7.1,9,6.3,2.3-.4,3.6-2.7,3.1-4.9-1-4-7.3-8.2-10.9-15.7-3.8-7.8-3.9-15-.6-23.3l1.2,4.1c1.6,5.7,5.2,10.4,10.2,13.5l10.5,6.6c7.1,4.5,7.4,10.3,10.5,9.5,1-.2,1.5-1,1.7-1.9,1.3-4-2.8-9.8-6.3-12.8,15.2,4.2,22,16.7,21.4,31.8,4.2-4,4.2-9.5,4.3-14.8,5.6,8.1,8.2,17.2,8.2,26.8,0,7.3-1.7,14.5-4.8,21.2l-1.3,2.5c-12,22.4-39.1,32.4-62.7,23.4-11.5-4.4-20.9-12.7-26.5-23.7-.7-1.3-4.2-12-4.2-12h0c9.8,9,10.6,9.6,11.6,10.4Z"/>
      <path class="st4" d="M128.8,178l4.1,1.3c5,1.4,10.3,2,15.5.7,4.2-1,8-3,10.8-6.1l1.5-1.4c8.7-9.5,8.7-23.7-.3-32.9-.3-.4-1-.4-.7-1l4.2.9c2,.8,3.6,2,5.1,3.5.7-7.2-3.3-13.6-8.2-18.7l2.9.8c.6.2,1.2.4,1.8.7,11.4,4.9,17.8,14.2,18.5,26.9,1.7-.7,3-1.9,3.7-3.5l1.9-4.3c2.4,11.5-1.8,22.4-10.8,30.4-9.9,8.9-23.3,12.1-35.8,8.9l-2.5-.7c-3.1-.9-5.8-2.2-8.7-3.5l-3.1-1.9Z"/>
    </g>
  </g>
  <g id="Chile">
    <path class="st1" d="M193.4,174.5c-3.5-.2-24.9,7.2-32.2,7.7-16.5,1.1-32.2-22.5-38.3-32.7l-3.4-5.1c-1.7-2.6-3.6-5-5.8-7.3s-3-1.6-4.7-1l-7.1,2.6c-1.7.6-2.9,2.2-2.9,4v6.4c-.2,2.8-2.8,4.8-5.5,4.2l-3.2-.7-3-.7c-1.7-.4-3.5.2-4.6,1.6l-4.7,6.3c-.9,1.2-1.1,2.8-.6,4.2l.6,1.7c0,.1.1.3.2.4,3.2,6.7,7.6,12.6,12.8,18,15.2,15.9,36.5,24.4,58.4,22.9,28.6-1.9,56.9-20,55.2-30-.3-2-8.4-2.9-11.3-2.7h0ZM97.2,152.3"/>
    <path class="st5" d="M110.5,145.7c.6-.6,2.1-.8,2.8.3l5.6,8.5c3.6,5.5,7.1,10.7,11.6,15.7,4.8,5.2,9.9,9.7,16.2,13.1.6.3,1.5.1,1.5,1-18.6-6-28.6-19.7-38.5-36-.6-1,0-2,.7-2.7Z"/>
    <path class="st0" d="M104.9,131.3c-4.4-1.8-9.7-1.7-14,.3s-2.6.3-3.4-.4c-5.1-4.7-8.8-10.7-6.8-17.2,1.3-4.2,5.1-6.2,9.3-5.7,1.5.2,2.6-1.7,2.8-2.8.2-1.3-.3-3.1-1.9-3.6-2.6-.8-7.3.1-9.4,1.5s-.8.4-.9.5c-2.3,1.3-2.8,2-4.3,4.5-5.6,8.6-1.9,19.6,3.8,27.7s2.1,2.4,1.6,3.1c-2.8,4.1-5.3,8.6-6.4,13.9s4.2,6.5,5.9,1.6l1.9-5.6c.5-.7,1.4-1,2.2-.8l10.3,2.5c.3.3.7,0,.5-.5.2-3.8.2-7.3.2-10.9s.5-1.5,1.2-1.8l7.4-2.8c1.6-.6,1.6-2.9,0-3.5Z"/>
  </g>
  <g id="flame_outline">
    <g>
      <path d="M143.7,176.5c3.3.8,6.9,1.2,10.3.8s6.7-1.9,8.7-5.2,1.7-3.6,2.4-5.4,1.6-4.5,2.3-6.8c1.1-4.2,1.6-8.6.5-12.8s-3.6-7.8-7.5-9.7l-1.2,2.7c3.8.9,7.9,1.9,10.4,5.1s2.6.2,2.6-1.1c-.4-8-4.1-15.7-10.3-20.8l-1.5,2.5c11.5,3.9,20,14.3,21.5,26.5s1.2,2,2.3,1.3c3.4-2.5,5.8-6,6.7-10.2h-2.9c3.2,12.2-1.9,26.5-12.6,33.4-1.6,1-.1,3.6,1.5,2.6,11.9-7.7,17.5-23.3,14-36.8s-2.6-1.5-2.9,0c-.7,3.3-2.6,6.3-5.4,8.4l2.3,1.3c-1.6-13.5-10.7-25-23.7-29.4s-2.6,1.5-1.5,2.5c5.6,4.6,9.1,11.4,9.4,18.7l2.6-1.1c-2.8-3.6-7.5-4.9-11.7-5.9s-2.7,2-1.2,2.7c6.7,3.3,7.4,11.6,5.9,18-.9,3.7-2.1,7.5-3.8,10.9s-1.5,3-2.9,4-2.4,1.1-3.7,1.3c-3.3.5-6.8.1-10-.6s-2.7,2.4-.8,2.9h0Z"/>
      <path d="M205.4,176.4c13.9-8.1,23.8-22.2,26.5-38.1.8-4.8,1-9.6.5-14.5s-2.4-2-2.9-.4c-1.4,4-4.3,7.3-8,9.3l2.3,1.3c-.7-16.2-9.7-31.3-23.8-39.4s-8-3.8-12.2-4.9-2.5,1.4-1.5,2.5c6.8,7.2,8.7,17.3,10.4,26.7l2.5-1.5c-3.6-4.6-9.2-7.3-15-7.4s-1.8,1.6-1.1,2.6c3.1,3.9,5,8.6,5.7,13.5s1.8,1.4,2.5.7c1.5-1.6,2.3-3.5,2.2-5.7l-2.8.8c6.8,11.9,8.8,26.3,5.8,39.7-.9,3.8-2.1,7.5-3.7,11s1.8,3.3,2.6,1.5c6.2-13.2,7.2-28.5,2.9-42.4s-2.9-7.8-4.9-11.4-2.8-.7-2.8.8-.4,2.6-1.4,3.6l2.5.7c-.8-5.5-3-10.5-6.5-14.9l-1.1,2.6c5.1,0,9.8,2.5,12.9,6.5s2.7-.2,2.5-1.5c-1.8-9.9-4-20.5-11.2-28l-1.5,2.5c14.6,3.6,26.6,14.5,31.4,28.7s2.2,8.4,2.4,12.7,1.2,1.9,2.3,1.3c4.4-2.5,7.6-6.4,9.3-11.1l-2.9-.4c1.6,15.8-4.1,31.6-15.5,42.6-3,2.9-6.3,5.4-9.9,7.5s-.2,3.6,1.5,2.6h0Z"/>
      <path d="M170,89.4c-.6,3.7-4.6,5-7.8,3.9s-5.9-4.8-7.3-8.2-2.4-1.5-2.9,0c-2,6.4-1.1,13.5,2.2,19.3l2.1-2.1c-7.1-4.3-16-9.8-15.8-19.2s-2.1-2.1-2.8-.8c-3.5,6.6-3.3,14.4-.5,21.2s3.3,6.3,5.7,9,5.6,5.6,5.5,9.4-6.4,1.1-8.2-1-2.5,0-2.6,1.1c-.7,7.8,2.8,15.3,9,20s7,4.2,10.3,6.6,5.8,5.2,6.3,8.9,3.2,1.9,3,0c-1.1-8.4-8.9-12.2-15.3-16.2s-6.3-4.7-8.2-8.3-2.5-7.2-2.2-11.1l-2.6,1.1c2.1,2.6,6.1,5.3,9.6,4.4s4.1-6.3,2.9-9.4-4.9-6.4-7.2-9.7-4.1-6.9-4.9-10.8-.4-9.5,1.8-13.7l-2.8-.8c-.2,10.6,9.2,17,17.3,21.8s2.8-.8,2.1-2.1c-3-5.2-3.7-11.3-1.9-17h-2.9c1.9,4.6,5,9.2,10.1,10.5s9.9-1.3,10.7-6.2-2.6-2.7-2.9-.8h0Z"/>
      <path d="M150,42.9c0,8.4.4,17.1,5.1,24.4s5.5,7.1,8.3,10.5,3,3.6,4.5,5.4,2.9,3.5,2.3,5.7,2.4,2.7,2.9.8c1.1-4.5-2.7-8-5.3-11.2s-6.1-7.1-8.9-10.9c-2.6-3.5-4.3-7.4-5.1-11.7s-.8-8.7-.9-13-3-1.9-3,0h0Z"/>
      <path d="M230.1,108c-.2-8.7-1.2-17.5-4.6-25.6s-10-14.9-16.7-20.7-8.4-5.8-13.5-4.7-1.5,2.2-.4,2.7c5.1,2.7,8.7,7.6,9.9,13.2s1.1,6.5-1.2,5.9-2.4-2-3.3-2.9-2.6-2.5-4-3.6c-10.3-8.6-22.9-14.5-31.7-24.8-4.6-5.4-7.8-12.2-7.9-19.3s-2.1-2.1-2.8-.8c-2.5,4.8-3.8,10-4,15.4s2.9,1.9,3,0c.2-4.8,1.4-9.5,3.6-13.8l-2.8-.8c0,15.5,12.4,26.5,24.2,34.7s12.9,8.5,18.6,13.7,5,6.3,8.5,5.3,3.3-4.6,3-7.2c-.7-7.3-5.1-14-11.6-17.4l-.4,2.7c4.1-.9,7.9,1.7,10.9,4.3s6.1,5.6,8.9,8.7c5.4,6.1,8.6,13.5,10,21.5s1.1,9.1,1.2,13.6,3,1.9,3,0h0Z"/>
      <path d="M183.2,202.3c15.1-3.7,29.8-11.1,41.7-21.2s10.8-10.8,14.6-17.6,7.2-15.7,8.8-24.2c1.8-9.7,1.9-19.6.2-29.2s-3.2-1.1-2.9.8c2.9,16.4.3,33.8-7.4,48.7s-8,12.7-13.6,17.8-12.1,9.4-18.9,13-15.2,7-23.3,9-1.1,3.4.8,2.9h0Z"/>
      <path d="M248.2,109.7c-2.2-8.9-5.8-17.5-10.7-25.3s-2.8-.8-2.8.8c.2,7.9-2.3,15.8-7.2,22.1s.9,3.6,2.1,2.1c5.4-6.9,8.3-15.4,8.1-24.2l-2.8.8c4.7,7.6,8.2,15.9,10.4,24.6s3.4,1.1,2.9-.8h0Z"/>
    </g>
  </g>
</svg>