<?xml version="1.0" encoding="UTF-8"?>
<svg id="Layer_2" xmlns="http://www.w3.org/2000/svg" xmlns:xlink="http://www.w3.org/1999/xlink" version="1.1" viewBox="0 0 256 256">
  <!-- Generator: Adobe Illustrator 30.3.0, SVG Export Plug-In . SVG Version: 2.1.3 Build 182)  -->
  <defs>
    <style>
      .st0 {
        fill: #f57165;
      }

      .st1 {
        fill: url(#linear-gradient);
      }

      .st1, .st2, .st3, .st4, .st5, .st6, .st7, .st8, .st9 {
        stroke: #000;
        stroke-miterlimit: 10;
        stroke-width: 2px;
      }

      .st10 {
        fill: #fdf8ec;
      }

      .st2 {
        fill: #e67a17;
      }

      .st3 {
        fill: #eb9422;
      }

      .st4 {
        fill: #e77f1b;
      }

      .st5 {
        fill: url(#linear-gradient1);
      }

      .st6 {
        fill: #ea9322;
      }

      .st7 {
        fill: #e34a07;
      }

      .st8 {
        fill: #d83420;
      }

      .st9 {
        fill: #609347;
      }
    </style>
    <linearGradient id="linear-gradient" x1="-456.5" y1="79.5" x2="-681.5" y2="491.7" gradientTransform="translate(265.5 84.3) rotate(11.6) scale(.2)" gradientUnits="userSpaceOnUse">
      <stop offset=".2" stop-color="#ec9221"/>
      <stop offset="1" stop-color="#e3590c"/>
    </linearGradient>
    <linearGradient id="linear-gradient1" x1="-356.4" y1="254.1" x2="-110.7" y2="392.5" gradientTransform="translate(279 85.3) rotate(28.1) scale(.2 .2)" gradientUnits="userSpaceOnUse">
      <stop offset="0" stop-color="#e47816"/>
      <stop offset="1" stop-color="#e14c05"/>
    </linearGradient>
  </defs>
  <g>
    <path d="M195.3,112.6c-1.1-1.5.3-5.7.2-7.7-.5-12.8-14.4-15.6-24.2-10.5-5.9,3-5.5,7.8-9,10.5-4.6,3.6-10.6-2-15.1-3.8-14.3-5.6-29.1-4.1-36.6,10.6-35.2-1.7-31.8,46.4.9,47.9,12.7.6,24.6-3.6,36.5-5.2,10.9-1.4,21.7-.4,32.1,2.9,9,2.8,7.8,4.5,18.3,1.3,7.7-2.4,13.7-6.4,17.7-13.6,1.6-2.9,2.5-7.3,4.2-9.5,2.5-3.5,6.5-4,9-9.2,4.9-10.3,1.3-21.1-5.8-29.2-1.4-1.6-5.9-4.9-6.5-5.9-1.2-2-1.2-8-2-11-3.4-13.3-17.7-25.7-31.3-27.3-4.3-.5-11.8,1.1-14.8.5s-8.5-6.1-11.4-7.5c-8.3-3.9-18.8-4.9-27.5-1.8-2.7,1-7,4.4-9.4,4.3s-8-3.9-10.9-4.8c-13-3.8-29.2,1.2-38.7,10.8-2.4,2.4-6.4,9.7-8.3,10.9-2.3,1.3-5.7.9-8.2,1.6-10.5,2.8-20.2,14.7-21.4,25.5-.3,2.9.5,6.7-.4,9.4s-3.6,3-5.2,4.5c-13.1,12.3-3.9,31.7,13,33.2,9.8.9,15.9-3.1,24.1-3.3,3.5,0,8.5,2,11.4,1s1.5-5,2-7.8c1.8-11.1,7.8-20,18.6-23.7,3-1,8.1-.9,9.9-1.8s4.5-5.4,6.2-6.8c9.8-7.8,22.1-7.5,33.5-4.2,2.8.8,9,3.9,10.9,4.1s4.2-6.5,4.1-8.7c-.3-8.9-2.7-9.4-6.5-15.7-2.2-3.8-.5-7.7,4-6.6,5.5,1.4,9.9,15.4,9.6,20.7,10.7-4,22.2-4.1,29.9,5.5,3.7,4.6,7.1,15.1,3.2,20.1-1.5,1.9-5.2,1.8-6.3.3Z"/>
    <path d="M187.4,43.1c3.4.6,11.1,3.6,14.3,5.2,9.6,4.9,18.5,16.3,22,26.5,1,3.1,1.4,8.3,2.5,10.6s5.5,5.2,7.1,7.2c10.1,12.9,12.6,34.5-.6,46.2-1.1,1-3.1,1.3-3.9,2.6s-1.5,5.1-2.5,7.3c-5,10.6-15.9,17.3-26.7,20.9-1.7.6-5.4.9-6.3,1.5s-3.5,7.5-4.9,9.4c-4.1,5.3-11,7.8-17.6,8.4s-17.9-1.7-21.7,6.3c-1.3,2.9-.7,7.7-4.3,8.1-11.1,1.3-7.4-3-8.2-10.7-1.3-11.4-9-20.8-20.5-22.4-14.4-2.1-22.1-.5-32.5-13.1-1.4-1.7-4.9-8.2-5.3-8.5-.9-.5-8.8-1.9-10.3-2-10.1-.3-19.4,4.6-31.2,3.2-20.4-2.4-32.4-26.5-22.4-44.4,1.8-3.1,6.3-6.3,7.2-8.4s1.6-9.1,2.8-12.9c3.2-10.1,10.3-18.9,19.7-23.9,3.5-1.8,11.9-3.9,13.8-5.4s3.2-4.7,4.9-6.5c12.7-13.9,34.4-19.5,52.4-13.7,1.5.5,4.1,2.6,5.4,2.5s3-1.7,4.4-2.1c15.2-4.7,28.9-3.2,42.5,5,1.1.6,1.9,2.1,2.8,2.4,3.4,1,12.5,0,17.1.8Z"/>
    <path class="st10" d="M195.6,112.6c-1.1-1.5.3-5.7.2-7.7-.5-12.8-14.4-15.6-24.2-10.5-5.9,3-5.5,7.8-9,10.5-4.6,3.6-10.6-2-15.1-3.8-14.3-5.6-29.1-4.1-36.6,10.6-35.2-1.7-31.8,46.4.9,47.9,12.7.6,24.6-3.6,36.5-5.2,10.9-1.4,21.7-.4,32.1,2.9,9,2.8,7.8,4.5,18.3,1.3,7.7-2.4,13.7-6.4,17.7-13.6,1.6-2.9,2.5-7.3,4.2-9.5,2.5-3.5,6.5-4,9-9.2,4.9-10.3,1.3-21.1-5.8-29.2-1.4-1.6-5.9-4.9-6.5-5.9-1.2-2-1.2-8-2-11-3.4-13.3-17.7-25.7-31.3-27.3-4.3-.5-11.8,1.1-14.8.5-1.6-.3-8.5-6.1-11.4-7.5-8.3-3.9-18.8-4.9-27.5-1.8-2.7,1-7,4.4-9.4,4.3-1.9,0-8-3.9-10.9-4.8-13-3.8-29.2,1.2-38.7,10.8-2.4,2.4-6.4,9.7-8.3,10.9-2.3,1.3-5.7.9-8.2,1.6-10.5,2.8-20.2,14.7-21.4,25.5-.3,2.9.5,6.7-.4,9.4-.8,2.4-3.6,3-5.2,4.5-13.1,12.3-3.9,31.7,13,33.2,9.8.9,15.9-3.1,24.1-3.3,3.5,0,8.5,2,11.4,1,3.2-1,1.5-5,2-7.8,1.8-11.1,7.8-20,18.6-23.7,3-1,8.1-.9,9.9-1.8.8-.4,4.5-5.4,6.2-6.8,9.8-7.8,22.1-7.5,33.5-4.2,2.8.8,9,3.9,10.9,4.1,2.5.2,4.2-6.5,4.1-8.7-.3-8.9-2.7-9.4-6.5-15.7-2.2-3.8-.5-7.7,4-6.6,5.5,1.4,9.9,15.4,9.6,20.7,10.7-4,22.2-4.1,29.9,5.5,3.7,4.6,7.1,15.1,3.2,20.1-1.5,1.9-5.2,1.8-6.3.3Z"/>
    <path class="st10" d="M183.5,170c-2.4-.9-3.9-2.7-6.3-3.8-8.4-3.6-29.6-4.1-37.5.6s3.2,8.5,5.6,9.8c6.8,3.7,21.2,4.1,28.4,1.5s11-6.3,9.8-8.1Z"/>
    <path d="M58.6,67.4c9.2,10,11.1,24.3,4.8,36.4s5.1,9.7,7.8,4.5c8.3-15.8,5.9-34.2-6.2-47.3s-10.3,2.1-6.4,6.4h0Z"/>
    <path d="M208.6,131.5c2,3.5-1.4,5.9-4.4,6.7-8.9,2.5-17-.4-23.8-6.2-3.2,4.5-8.7,8.4-14.4,9.1-12.2,1.4-23.8-11.7-36.3-3.7-2.7,1.7-8.1,10.3-11.5,5.5-3.5-4.9,7.1-12.2,11.1-13.7,11.9-4.5,19.2-.2,29.5,4.3,6,2.7,16.3-1.7,18.3-8s-.8-9,3.3-9.7c5.7-1,4.4,5.5,5.3,9,1.3,5,8.1,7.1,12.8,6.6,2.3-.2,8.3-2.8,10,.2Z"/>
    <path d="M51.9,115.7c-6-1.5-8.9-7-7-12.9s-6.9-7.9-8.7-2.4c-3.3,10.5,2.7,21.2,13.3,23.9s8-7.2,2.4-8.7h0Z"/>
    <path d="M143.1,78.7c-1.3-8.8-7-16.9-15-21-9.4-4.8-20.5-1.4-29.7-6.3s-9.6,5-4.5,7.8c8.2,4.4,16.7,2.9,25.5,4.8s13.8,8.9,15,17.1c.8,5.7,9.5,3.3,8.7-2.4h0Z"/>
    <path d="M71.5,87.4c4.8,3.1,10.3,2.8,15.4.5s12.3-9.4,16.9-5.6,10.9-2.7,6.4-6.4-9.6-4.3-15-2.4-13.1,10-19.1,6.1-9.4,4.6-4.5,7.8h0Z"/>
  </g>
  <g id="Generative_Object">
    <path class="st1" d="M126.3,141.5c7.7,4.9,14.8-.4,24.3-1,10.9-.7,21.3,4.8,26.1,14.7-4.3-1.8-7.7-3.7-11.9-4.5-11.2-2.2-22.6.7-33.3,3.5-7.6,2-15.2,3-23.1,1.5-9.2-1.7-17-6.9-19.7-14.6-1.1-3-.9-5.7-.7-9.9.3-7.1,2.1-10.5,3-15.5.8-4.3,1.1-10.6-1.6-19,3.4,5.9,6.7,14,6.4,23.8,0,1.1-.1,2.2-.2,3.2,1.1-2.7,2.5-4.8,4.3-6.4,5-4.7,10.4-1.2,18.5-4.8,2-.9,7.7-3.5,10.8-9.6,3-5.9,1.8-11.8,1.3-14,1.6,2.3,4.7,7.9,3.4,14-1.4,6.3-7.1,11.1-10.8,14.2-.6.5-1.2,1-1.5,1.2,8.2-.6,9.9-8.2,17.5-11.1,3.7-1.4,7.7-1.3,11.7-.8,14.9,1.7,24.3-1.4,26.7-6.5,1.5-3.2-.2-7.6-2.3-9.9-4-4.3-11.1-3.3-11.1-3.4,0,0,8.8-2.2,14.8,3.3,5.2,4.7,6.6,13.5,2.9,19.1-1.4,2.1-3.2,3.2-4.5,3.8,2.6,0,6-.3,9.4-2.2,7.2-3.9,11.3-12.9,10.8-22.9.8,4.2,2.9,18.1-5.2,29.1-3,4.1-6.2,6.2-6.9,6.6-7.3,4-15,3.5-20.5,3-4.1-.4-6-.9-8.1-1.5-2.6-.2-6.6-.8-9.2-1.1-1.5-.1-3.1-.3-4.6-.4,1.5-1.4,3.9-3.2,7.2-4.3,2.4-.8,4.1-.9,4.2-.9.5-.7-7.9-3.5-14.9,3.7-1.9,2-4,4-6.6,5.1-8,3.2-15-4.1-22.9-1.6-3.8,1.2-7,4.1-7.5,8.2-.4,3.7,1.9,6.9,5.2,8.4-.7-2.7-.6-5.4,1.3-7.3,3.3-3.3,7.9-3.3,12.2-1.5,1.6.7,2.6,1,3.5,1.2,1.1.2,2.2.4,3.2.4,3.1.1,7-.2,8.7-.5,8.5-1.6,24.8-14.9,25-14.7,0,0-2.9,2.4-6.2,6.2-2.2,2.6-2.5,3.5-4.7,5.7-2.1,2.1-4.1,3.7-5.7,4.8-1.8,1.5-5.5,4.3-11,5.2-3.2.6-5.9.3-7.8,0Z"/>
    <path class="st5" d="M172.7,132.3c2.7-3.1,8.1-5.9,12.8-3.6,4.2,2.1,5.2,6.8,5.3,7.5-2-2-4.8-2.7-7.2-1.7-2.2.9-4.4,3.3-3.8,5.3,1.4,4.7,6.8,8,11.9,7.6,6.9-.6,10.1-6.7,7.3-12.9l-1.2,3.4c-2.1,3.1-6,4.5-10.5,2.7,3.2-.7,5.8-2.3,6-5.3l.3-4.3c-.7-6.5,1.7-10.3,8.4-11.9,2.3-.5,4.1-1.7,5.4-3.3,2.1-2.7,1.9-6.3,1.7-7.8-.2-2.2-.8-3.8-2.1-6.7,0,0,0,0,0,0,0,0-1.4-3.4-3.7-6.8-1.5-2.3-8.6-10.4-19.9-19.8,7,2.7,19.9,8.9,27.4,22.3,1.2,2.2,2.2,4.3,2.9,6.4.9-2.9,1.7-6.9.9-11.3-1.9-10.4-11.3-16.4-10.8-16.9.4-.4,6.4,3.2,11.2,9.8,2.6,3.5,6.3,8.5,5.8,15-.2,3-1.3,5.3-2.1,6.8.2,1.1.3,2.3.5,3.4.8,6-1.8,11.2-6.9,14.3-2.4,1.5-4.9,2.7-6.4,5-1.8,2.8-2,6.2.2,7.1,0,0,.7.4,1.3.2,1.5-.6,1.2-4,1.4-6,1-7.4,11.8-7,15.8-16.5.4-1.1,1.2-3.6,2.8-8.7,1-3.4,1.7-4.1,2.1-6.2,1-4.9-.1-8.6,0-8.6.2,0,2.4,6.1,2,14.1-.3,6-2,13-6.2,18.2-4.3,5.3-7.9,4-10.3,9.1-2,4.4,0,6.5-2,11.7-2.2,5.8-6.9,8.9-7.7,9.3-6.5,4-15.4,3.6-23.4-.9-8.8-4.8-14-14.5-9.2-20.1Z"/>
    <path class="st7" d="M147.8,192.6c-1.8-3.3-3.7-5.8-5.6-7.8-5.9-6.2-11.1-6.6-14-12-.9-1.8-2-4.7-1.5-9.4,2.5,2.1,5,4.1,7.5,6.2.1-1.1.9-7.6,6.7-11.9,4.8-3.6,9.9-3.4,11.3-3.3-5.3,6.8-7.6,12.6-5.7,14.6.3.4,1.8,1.8,7.4-.1-5.8-2.3-7-3.4-6.8-4,.4-1.8,15.2,3.4,26.5-3.7,1.4-.9,3.7-2.4,5.6-5.2,5.5-8.3,1.3-18.8,2.5-19.1,1-.2,5.6,6.9,4.6,15.2-1.2,9.6-9.3,15.6-10.9,16.8-5.5,4-10.2,4.5-10,5.3.2,1.1,8.6,1.3,16.1-2.6,3.9-2.1,6.6-4.7,8.2-6.7-1.3,9.4-7.8,17.3-16.6,20.1-9.9,3.2-21.1-.5-27.5-9.3,2.5,5,7,7.9,11.8,10l-9.3,6.8Z"/>
    <path class="st6" d="M205.2,72.6c-1.6,0-4.8,0-7,1.9-3.6,3.1-3.8,10.2.9,16.3-3.8-5-5.8-9.8-5.5-12.5.1-1.1.4-2.3.4-2.3.7-3.4,2.4-6.2,5.2-8.5,2.4-1.9,5.4-2.7,8.5-3,2.2-.2,3.1-.4,4-1.2,1.2-1.2,1.4-3,1.3-4.4,1.2,2.4,1,3.8.5,4.6-.6,1-1,2.3-3.9,3.4-.7.3-1.2.8-1,1.4.2.7,4.3.2,6.6-1.1,5.6-3.3,4.4-13.2,4.3-14.1.5,1.4,2.6,7.1-.2,13.3-2,4.5-5.3,6.9-6.8,7.9l-4.4,2.4c-2.5,1.4-4.1,3.3-4.9,6.3-1.1-1.8-.8-3.7-.5-5.5.3-1.8,1.3-3.2,2.7-4.7Z"/>
    <path class="st3" d="M166,76.3c-5.7-2.3-11,.5-13,5.9-3-5.9.9-11.9,7.2-13.6l9.8-2.7c5.4-1.5,9-5.6,9.9-10.7l1.5-7.1c-.1-1.1,0-3.2,1.1-5.1,2-3.2,6.4-4.7,11-3.7-.7.4-2.8,1.9-3.8,4.7-1.2,3.4,0,6.3.3,6.9l2.9,10.3c3.4,11.9-5.6,25.4-20.6,26.6,5.6-3.5,8.9-8.4,6.8-14.5-3.3,3.8-8.2,4.8-13,2.9Z"/>
    <path class="st4" d="M148.2,144.9c-.2-1.4.4-3,1-4.3,2.2-5.2,6.7-7.3,12.2-8.4,7.5-1.5,11.1-7.3,10.3-15.4,3,3.3,4.3,8,3.2,12.4-1.2,5-5.1,8.1-10,8.9l-8,1.3c-3.5.5-6.1,2.4-8.7,5.5Z"/>
    <path class="st2" d="M233,126.7l1.7-2c2.1-2.5,3.7-5.1,4.3-8l.6-4.6c.5-3.5,2.4-7,5.6-9.6-3.5.6-6.9,3.3-9,6.7-2.4,4-1.1,13.7-14.1,22.1,3.7,0,7.4-2,10.8-4.7Z"/>
  </g>
  <g id="Generative_Object1" data-name="Generative_Object">
    <g>
      <path class="st8" d="M131.8,198c-.3,3.7.5,10.2,3.4,11,1.3.4,2.8,1.4,4.3.9,1.1-.3,1.8-1.6,2.5-2.1.2-.2.6-.6,1-.6.9,0,2.3,2.5,3.5,2.6,1.8.2,3.5-.9,5.1-1.5,2.5-.9,2.8-7.6,2.8-11-.1-4.7.2-9.2,1.7-13.7,1-3.1,2.6-5.9,4.6-8.4.5-.6,2.5-3,5.9-5.4,5.3-3.7,8.8-3.8,9.4-6.6.2-1.1,0-2.4-.7-3.3-2.6-3.3-11.3,0-13.8.7-16.8,4.6-28.4,20.3-29.6,37.5Z"/>
      <path class="st9" d="M135.6,209.5c4.4,1.9,5.8-2.1,7.2-2.5s2.7,3.9,7,2.4,2.5-1.3,4.1-1.3c-2.9,6.2-7.1,5.2-6.9,8.2.2,4.2,2.4,6.3,6.1,8.4.4.9-2.3,3.4-2.8,3.9s-3.3,1.6-4.2.8c-6.6-5.9-3.9-14.2-6-14.8-6.6-1.8-8.5-6.1-7.6-6s2.2.6,3.2,1Z"/>
      <path class="st0" d="M152.1,182.5c1.4-3.2,3-6,5.4-8.4s1.1-1.1,1.8-.9c-5.7,6.9-7.3,13.2-7.2,22.1,0,3.6.2,9-2.7,10.5-.6-.6-.6-1.5-.4-2.3.6-2.5,1-4.7.9-7.3,0-3.8.3-7.6,1.4-11.3l.7-2.3Z"/>
    </g>
  </g>
</svg>