<?xml version="1.0" encoding="UTF-8"?>
<svg id="Layer_1" xmlns="http://www.w3.org/2000/svg" version="1.1" viewBox="-4 -4 273 264">
  <!-- Generator: Adobe Illustrator 30.3.0, SVG Export Plug-In . SVG Version: 2.1.3 Build 182)  -->
  <defs>
    <style>
      .st0, .st1, .st2 {
        stroke: #000;
        stroke-miterlimit: 10;
        stroke-width: 2px;
      }

      .st3 {
        fill: #c52b28;
      }

      .st4 {
        fill: #fff;
      }

      .st5 {
        fill: #f9f9f7;
      }

      .st1, .st6 {
        fill: #e82b28;
      }

      .st2 {
        fill: #459747;
      }
    </style>
  </defs>
  <polygon class="st0" points="5.646,128.018 132.572,1.092 259.498,128.018 132.572,254.944"/>
  <g>
    <g id="SPICY">
      <path class="st5" d="M110.3,63.5c-.7.2-1.4.4-2,.4-.6,0-1.2,0-1.7-.1-.5-.1-.9-.3-1.3-.4-.4-.2-.7-.4-.9-.5-.3-.2-.5-.4-.6-.6-.1-.2-.2-.4-.1-.6s.1-.5.3-.8c.2-.3.4-.5.6-.6.2,0,.5,0,.8,0,.3,0,.6.2.9.4.5.4,1.1.6,1.6.6.5,0,1,0,1.5-.2.6-.2,1.1-.5,1.5-.8.4-.3.6-.7.8-1.1s.1-.9,0-1.4c-.1-.4-.4-.7-.7-.9s-.7-.3-1.2-.3c-.5,0-1,0-1.6,0-.6,0-1.1,0-1.7,0-.4,0-.8,0-1.3,0-.4,0-.8-.1-1.2-.3s-.8-.3-1.1-.5c-.3-.2-.6-.5-.9-.9-.3-.4-.5-.8-.7-1.3-.3-.9-.3-1.7-.2-2.5.2-.8.6-1.5,1.2-2.2.6-.6,1.4-1.1,2.4-1.5.6-.2,1.2-.3,1.7-.4.5,0,1,0,1.4,0,.4,0,.8.1,1.1.2.3,0,.5.2.7.3.5.2.8.5.9.7.1.2,0,.6,0,1.1-.2.5-.4.8-.7,1-.3.1-.7.1-1.1,0-.3-.2-.6-.3-.9-.4-.3,0-.6,0-.9,0s-.7.1-1.1.2c-.3.1-.6.2-.8.4-.3.2-.5.4-.6.6-.1.2-.2.5-.3.7,0,.3,0,.5,0,.8.1.4.3.7.7.8.3.2.7.3,1.1.3.4,0,.9,0,1.4,0,.5,0,1,0,1.6,0,.6,0,1.1,0,1.7,0,.6,0,1.1.2,1.6.4.5.2.9.5,1.3,1,.4.4.7,1,1,1.7.3.8.4,1.6.3,2.4-.1.7-.4,1.4-.8,2-.4.6-.9,1.1-1.5,1.5-.6.4-1.2.7-1.9,1Z"/>
      <path class="st5" d="M118.2,60.9c-.5,0-.8,0-1,0-.2,0-.4-.3-.5-.5,0-.2-.2-.5-.2-.7l-2-13.7c0-.3,0-.5,0-.7,0-.2.1-.4.3-.6.2-.2.5-.3.9-.3l5-.7c.7-.1,1.4,0,2.1,0,.7.1,1.3.4,2,.8.6.4,1.1.9,1.5,1.6s.7,1.4.8,2.4c.1.9,0,1.8-.1,2.5-.2.7-.5,1.4-1,1.9-.5.5-1,1-1.7,1.3-.6.3-1.3.6-2,.7l-3.6.5.6,4c0,.3,0,.5,0,.7,0,.2-.1.4-.3.6-.2.2-.5.3-1,.3ZM118.4,52.4l3.6-.5c.5,0,.9-.2,1.3-.5.4-.3.7-.6.9-1,.2-.4.2-1,.1-1.6,0-.6-.3-1-.5-1.4-.3-.4-.6-.6-1.1-.8-.4-.2-.9-.2-1.5-.1l-3.6.5.8,5.4Z"/>
      <path class="st6" d="M131.6,59.6c-.5,0-.8,0-1-.2-.2-.1-.3-.3-.4-.5,0-.2,0-.5,0-.7l-.2-13.9c0-.3,0-.5,0-.7,0-.2.2-.4.4-.5.2-.1.5-.2,1-.2.4,0,.8,0,1,.2.2.1.3.3.4.5,0,.2,0,.5,0,.8l.2,13.9c0,.3,0,.5,0,.7,0,.2-.2.4-.4.5-.2.1-.5.2-1,.2Z"/>
      <path class="st5" d="M142.6,60.5c-.8,0-1.6-.3-2.3-.7-.8-.3-1.5-.8-2.2-1.3s-1.2-1.2-1.7-2c-.5-.8-.8-1.6-1-2.6-.2-.9-.2-2-.1-3.1.1-1.1.4-2.1.9-2.9s1-1.6,1.6-2.2c.6-.6,1.4-1.1,2.2-1.4.8-.4,1.6-.6,2.4-.7.8-.1,1.6-.2,2.4,0,.8,0,1.5.3,2,.5.6.3,1,.5,1.4.7.4.2.6.4.7.5.2.2.5.4.7.6.2.2.3.5.3.8,0,.2,0,.3-.2.5s-.2.3-.3.4c-.2.3-.4.4-.6.6-.2.1-.4.1-.6.1-.2,0-.3,0-.5-.2-.1-.1-.3-.3-.5-.4-.1,0-.3-.2-.5-.4-.2-.2-.5-.3-.9-.5-.4-.2-.9-.3-1.5-.4-.7,0-1.3,0-2,.1-.7.2-1.3.5-1.9.9-.6.4-1.1.9-1.4,1.6-.4.6-.6,1.4-.7,2.3-.1.9,0,1.7.2,2.4.2.7.6,1.4,1,1.9.5.5,1,1,1.6,1.3s1.3.5,1.9.6c.5,0,1,0,1.4,0,.4,0,.8-.1,1.1-.3.3-.1.5-.2.7-.3.2,0,.4-.2.5-.2.2,0,.3-.1.5,0,.2,0,.4.1.5.3.2.2.3.4.5.7,0,.2.2.4.2.5,0,.2,0,.3,0,.5,0,.3-.2.5-.5.7-.3.2-.5.3-.8.4-.1,0-.4.2-.8.3-.4.2-.9.3-1.5.4-.6,0-1.3,0-2.2,0Z"/>
      <path class="st5" d="M166.3,49.7c.3.5.5.8.4,1.1,0,.3-.3.6-.7.9l-7.7,5.9-1.7,4.9c0,.3-.2.5-.3.7-.1.2-.3.3-.5.4-.2,0-.6,0-1-.1-.4-.1-.7-.3-.9-.5-.2-.2-.2-.4-.2-.6,0-.2,0-.5.2-.8l1.7-4.8-2.5-9.4c-.1-.5-.1-.8,0-1.1s.5-.5,1-.6c.4-.1.7-.1.9-.1s.4.1.6.3c.1.2.2.4.3.8l1.9,7.9,6.4-5c.3-.2.5-.4.7-.4s.4,0,.6,0c.2.1.4.3.7.6Z"/>
    </g>
    <g id="THINKERS">
      <path class="st5" d="M98.6,185.2c.2.1.4.3.5.4.1.1.2.3.2.5,0,.2-.1.5-.4.8-.2.3-.4.5-.6.6-.2,0-.4,0-.6,0-.2,0-.4-.2-.6-.3l-3.6-2.6-7.5,10.4c-.2.2-.3.4-.5.5-.2.1-.4.2-.6.2-.2,0-.5-.2-.9-.4-.4-.3-.6-.5-.7-.7,0-.2,0-.4,0-.6,0-.2.2-.4.4-.6l7.5-10.4-3.6-2.6c-.2-.1-.3-.3-.5-.4-.1-.2-.2-.3-.2-.6,0-.2.1-.5.4-.8.2-.3.5-.5.7-.6.2,0,.4,0,.6,0,.2,0,.4.2.6.3l9.6,6.9Z"/>
      <path class="st5" d="M94.4,202c-.4-.2-.7-.4-.8-.6-.1-.2-.2-.4-.1-.7,0-.2.1-.5.2-.7l5.6-12.7c.1-.2.2-.5.4-.6s.3-.3.6-.3c.2,0,.6,0,1,.2.4.2.7.4.8.6.1.2.2.4.1.6,0,.2-.1.5-.2.7l-5.6,12.7c-.1.2-.2.4-.4.6-.1.2-.3.3-.6.3-.2,0-.6,0-1-.2ZM98,195.6l1.1-2.4,8,3.5-1.1,2.4-8-3.5ZM104.1,206.2c-.4-.2-.7-.4-.8-.6-.1-.2-.2-.4-.1-.7s.1-.5.2-.7l5.6-12.7c.1-.2.2-.5.4-.6s.3-.3.6-.3c.2,0,.6,0,1,.2.4.2.7.4.8.6.1.2.2.4.1.6s-.1.5-.2.7l-5.6,12.7c-.1.2-.2.4-.4.6-.1.2-.3.3-.6.3-.2,0-.6,0-1-.2Z"/>
      <path class="st6" d="M110.5,208.1c-.4-.1-.8-.3-.9-.5-.2-.2-.2-.4-.2-.6,0-.2,0-.5.1-.7l3.7-13.4c0-.3.2-.5.3-.7.1-.2.3-.3.5-.4.2,0,.6,0,1,0,.4.1.7.3.9.5.2.2.2.4.2.6,0,.2,0,.5-.1.8l-3.7,13.4c0,.3-.2.5-.3.7-.1.2-.3.3-.5.4-.2,0-.6,0-1,0Z"/>
      <path class="st5" d="M116.8,209.7c-.4,0-.7-.2-.9-.3-.2-.2-.3-.4-.3-.6,0-.2,0-.5,0-.7l1.7-13.8c0-.3,0-.5.2-.7,0-.2.2-.3.5-.5.2-.1.6-.1,1,0,.5,0,.8.1,1,.3.2.1.3.3.5.5l6.6,12.1,1.3-10.4c0-.3,0-.5.2-.7,0-.2.2-.3.5-.5.2-.1.6-.1,1,0,.4,0,.7.2.9.3.2.2.3.4.3.6s0,.5,0,.7l-1.7,13.8c0,.3,0,.5-.2.7,0,.2-.3.4-.5.5s-.6.1-1,0c-.4,0-.6-.1-.8-.2-.2,0-.4-.2-.5-.5l-6.7-12.1-1.2,10.2c0,.3,0,.5-.2.7,0,.2-.2.4-.5.5-.2.1-.6.1-1,0Z"/>
      <path class="st5" d="M135.2,211.1c-.5,0-.8,0-1-.1-.2-.1-.4-.3-.4-.5,0-.2-.1-.5-.1-.7l-1.2-13.9c0-.3,0-.5,0-.7,0-.2.2-.4.4-.6.2-.1.5-.2,1-.3.4,0,.8,0,1,.1.2.1.4.3.4.5,0,.2.1.5.1.7l.4,5,5.6-6.5c.2-.3.5-.5.7-.6.2-.1.4-.2.6-.1.2,0,.5.2.8.5.4.4.7.7.7,1,0,.3-.1.6-.5,1l-5.8,6.5,6.9,5.4c.4.4.7.7.7,1s-.2.7-.6,1.1c-.3.3-.5.5-.8.6-.2,0-.4,0-.6,0-.2,0-.4-.3-.7-.5l-6.7-5.5.4,5c0,.3,0,.5,0,.7,0,.2-.2.4-.3.6s-.5.2-1,.3Z"/>
      <path class="st5" d="M151,209.1c-.4.1-.8.2-1,0s-.4-.2-.5-.4-.2-.4-.3-.7l-3.8-13.3c-.2-.5-.2-.9,0-1.2s.5-.5,1.1-.6l9-2.6c.3,0,.5-.1.7-.1.2,0,.4,0,.6.2.2.2.3.5.5.9.1.4.1.8,0,1,0,.2-.2.4-.4.5s-.4.2-.7.3l-7.6,2.2,1.1,3.9,5.3-1.5c.3,0,.5-.1.7-.1.2,0,.4,0,.5.2.2.1.3.4.4.8.1.4.1.7,0,.9,0,.2-.2.4-.4.5s-.4.2-.7.3l-5.2,1.5,1.2,4.1,7.7-2.2c.3,0,.5-.1.7-.1.2,0,.4,0,.6.2s.3.5.5.9c.1.4.1.8,0,1,0,.2-.2.4-.4.5-.2.1-.4.2-.7.3l-9.1,2.6Z"/>
      <path class="st5" d="M166.4,203.9c-.4.2-.7.3-1,.3-.2,0-.4-.1-.6-.3s-.3-.4-.4-.6l-6.4-12.4c-.1-.2-.2-.5-.3-.7s0-.4.1-.7c.1-.2.4-.4.8-.6l4.6-2.4c.6-.3,1.3-.5,2-.6.7-.1,1.4,0,2.1.1.7.2,1.3.5,1.9,1,.6.5,1.1,1.2,1.6,2,.3.5.5,1.1.6,1.8.1.6.1,1.3,0,1.9,0,.6-.3,1.3-.7,1.8-.4.6-.9,1.1-1.5,1.6l-4.2,2.2,1.9,3.6c.1.2.2.5.3.7,0,.2,0,.4-.1.6-.1.2-.4.4-.8.6ZM163.9,195.8l3.6-1.9c.3-.1.5-.3.7-.5.2-.2.3-.5.4-.8,0-.3.1-.6,0-1s-.2-.8-.4-1.2c-.3-.5-.6-.9-1-1.2s-.8-.4-1.3-.4c-.5,0-1,.1-1.5.4l-3.3,1.7,2.5,4.9ZM175.4,198.9c-.3.5-.5.8-.8.8-.3,0-.7,0-1.2-.3l-6.4-3.6,2.7-1.9,5.1,2.9c.3.2.6.4.7.5s.2.4.2.6c0,.2-.1.5-.3.9Z"/>
      <path class="st5" d="M183.5,193.8c-.6.5-1.2.8-1.7,1-.6.2-1.1.4-1.6.4s-1,0-1.4,0c-.4,0-.7-.1-1-.2-.4,0-.6-.2-.8-.3-.2-.1-.3-.3-.3-.6,0-.2,0-.5,0-.9,0-.4.2-.6.4-.8s.4-.2.7-.3c.3,0,.6,0,1,.1.6.2,1.2.2,1.7,0s1-.3,1.3-.6c.5-.4.9-.8,1.1-1.2.3-.4.4-.8.4-1.3s-.2-.8-.5-1.3c-.3-.3-.6-.5-1-.6-.4,0-.8,0-1.3,0s-1,.3-1.5.5-1.1.4-1.6.6c-.4.1-.8.2-1.2.3-.4,0-.8.1-1.2.2-.4,0-.8,0-1.2-.1-.4-.1-.8-.3-1.2-.5-.4-.3-.7-.6-1.1-1.1-.6-.7-.9-1.5-1-2.3,0-.8,0-1.7.4-2.5.4-.8,1-1.5,1.8-2.2.5-.4,1-.7,1.5-.9.5-.2.9-.4,1.3-.5.4,0,.8-.1,1.1-.1.3,0,.5,0,.7,0,.5,0,.9.2,1.1.3s.3.5.3,1.1c0,.5-.1.9-.3,1.1-.2.2-.6.3-1.1.4-.3,0-.7,0-1,0s-.6.1-.9.2-.6.3-1,.6c-.3.2-.5.4-.7.7-.2.3-.3.5-.4.8s0,.5,0,.8c0,.3.2.5.4.8.2.3.5.5.9.6.3,0,.7,0,1.1,0,.4-.1.9-.3,1.4-.5.5-.2,1-.4,1.5-.6.5-.2,1.1-.3,1.6-.5.6-.1,1.1-.2,1.6-.1.5,0,1.1.2,1.6.5.5.3,1,.7,1.5,1.3.5.7.9,1.4,1,2.1s.1,1.4-.1,2.1-.5,1.3-.9,1.9c-.4.6-.9,1.1-1.5,1.5Z"/>
    </g>
    <g id="Brain">
      <g>
        <path d="M108.4,155c7.8,3.9,15,5.3,23.4,4l5.6,5.8c10.6,10.9,11.6,21.9,16.5,19.3,1.1-.6,3.3-3.7,3-4.9l-3.7-12.9,21.4-3.3c7.5-1.1,13.2-6.7,14.9-13.6l10.3-5.9c.8-.4.4-.3,1.2-.6l.6-.6c.5-.9,0-.1.5-.9,4.1-10,4.8-19.5.8-30-2.5-6.7-3.6-12.6-11.6-15.9-9.3-3.9-9.8-16-24.8-18.3-8.3-7.3-20-6.9-29.7-2.1-10.3-3.7-20.8-3-30.8.9-13.7,2.7-26.3,9.7-30.9,22.4-9.4,3.7-13.3,11.5-12.3,20.8-3.2,5.4-4.6,12.8-1.6,18.3,7.6,14,25.7,19.5,40.7,12l4.6,4.7M107.6,150.6c-.3.8-3.5-1.1-3.3-2l.8-3.8.3-9.5c3.8-9.2,17-12.3,26.4-8,.6-4.8,2.9-9.1,6.5-10.8,5-2.4,10.1-.5,14,1.9,11.1-1.6,21.6-11.9,21.3-23.1,0-3.1-6.7-6.8-9.3-5.7l-10.9,4.5c-.3-3.3-.9-8.5-2.6-11.4l-2.8,14.9c1.5.9,6.6,0,8.7-1.4l6.3-4.2c1.7-1.2,8.2,1.5,8.3,3.8.4,8.7-8.4,19-17.6,19.5-4.4-1.2-9.7-3.4-13.8-1.7-4.1,1.7-7.5,5.2-10.2,10-11.1-1.3-20.6,1.7-27.3,10.9-2.8,3.8-3.4,8.5-2.5,13.5-11.1,5.9-26.9,2.6-34.9-8.6-3.5-4.9-3.5-11.5-1.1-17.8,3-.2,8.6,3.8,8.2,6.3-.7,4.5-.6,9.3,1.4,11.6,2.1,2.4,8.4,3.9,11.3,3.4l5-.8c1.1-.2-1.8-3.4-2.3-4.4l-2-3.5c-1.5-2.4,11.2-1.9,12-3.8l2.4-6.1,7.6-5.4-7,1.8c-7,1.8-13.4-17.9-34.3-6.2-.9-7.5,5.1-12.6,10-13.4l6.5,3.6c1.5.8,5.8-2.5,5.2-4-.8-1.9-4.4-3.9-8.3-5.8,2.9-5.8,9.6-11.6,17.7-12.3-3.2,4.8-8.2,8.5-6.4,14.3,4.8-12.3,20-20.9,33.1-13.9,4.1,2.2.7,9.9-2.3,12-7.6,5.4-5.6,11.6-3.1,20.7-11.5-1.8-15.3-12.5-13.6-21.6.3-1.6,1.9-4.8,3.4-4.9l8.1-.5-3.6-2.7c-1.1-.9-5.2.3-6.3,1.4-4.4,4.1-4.7,10.4-4,16.2-5.7-.9-13.2-.3-15.1,4l12-2c5-.8,7.5,10,16.6,11.9,2,.4,5.8-3.9,4.9-5.7-7.9-14.5,11.3-17.8,7-27.4-2.1-4.5-8.3-5.8-15.1-7.1,5.5-3,15.7-3.1,21.4.2-.4,3.2.8,8.4,2.8,8.3,4,0,5-5,3.6-8.6,4.7-4,14.6-3.2,20.2-1.6l-6.5,4.8c1.1,1.4,4.2,3.7,5.9,4.1,2,.5,5.8-2.3,7.8-4.1,11.5-.2,12.4,12.1,22.6,18.3-2.7,1.1-7,3.4-7.5,5.5-3.7,14-17.2,22.6-31.8,23.5-3.1,4.7-7.8,7.9-13.7,6.3-11.4-3-23.6,2.2-27.7,12.4l-1.7,4.2ZM83.5,140.2c-4.9,1.3-10.3-2.1-10.1-7.4-.7-9.4,11-6.2,11.9-12.6.2-1.2-1.6-4-2.8-3.8-1.2.2-3.6,1.4-4.8,2.3l-5.1,3.9c-1.2.9-4.7-2.5-5.9-4.1,2.5-2.9,8-6,12.5-5.6,6.1.4,14.9,6.5,17.5,12.5.8,1.8-4,4.6-6.3,4.6-2.4,0-5.9.4-6.6,1.6-.8,1.5-.6,3.9-.3,8.7ZM153.6,182.5l-19.1-24.9c14.1-5,7.8-18.6,21.2-12.7-19.2,7.4-.6,20.2-2.1,37.5ZM150.4,160.6c-.8-.8.4-3.6,1.5-4.1l15.6-6.5c4.5-1.9,13.5-.6,18.9-.4-.4,12.4-31,15.9-36,10.9ZM193.1,145.2c-2.3,1-5.7-.6-8.8-3.2l-26.9,2.6,9.2-6.6c6.2-4.5,15.5-6.6,16-14.8-9.3,9.3-20.2,16.9-32.3,18.5l-11.7,1.5-12.1,3.5,14.3,3.1c-5.5,9.3-23.1,9.5-30.1,2.9-1-12.5,14.3-19.8,25.9-16.6,6.8,1.9,11.7-2.4,15.3-5.8,16.3-2.9,29.4-11.1,34.6-28.6,8.6,4.8,9.5,17.2,3.8,24.1-3.6,4.5-6.9,8.9-8.1,13.9,9.7.5,10.6-6,11.8-13.5l3.3,9.5c1,2.9-.4,7.8-4.1,9.5ZM199,136.6l-5.1-35.8c8.6,9.8,13.8,29.7,5.1,35.8Z"/>
        <path class="st4" d="M64.7,139.1c-3.5-4.9-3.5-11.5-1.1-17.8,3-.2,8.6,3.8,8.2,6.3-.7,4.5-.6,9.3,1.4,11.6s8.4,3.9,11.3,3.4l5-.8c1.1-.2-1.8-3.4-2.3-4.4l-2-3.5c-1.5-2.4,11.2-1.9,12-3.8l2.4-6.1,7.6-5.4-7,1.8c-7,1.8-13.4-17.9-34.3-6.2-.9-7.5,5.1-12.6,10-13.4l6.5,3.6c1.5.8,5.8-2.5,5.2-4s-4.4-3.9-8.3-5.8c2.9-5.8,9.6-11.6,17.7-12.3-3.2,4.8-8.2,8.5-6.4,14.3,4.8-12.3,20-20.9,33.1-13.9s.7,9.9-2.3,12c-7.6,5.4-5.6,11.6-3.1,20.7-11.5-1.8-15.3-12.5-13.6-21.6.3-1.6,1.9-4.8,3.4-4.9l8.1-.5-3.6-2.7c-1.1-.9-5.2.3-6.3,1.4-4.4,4.1-4.7,10.4-4,16.2-5.7-.9-13.2-.3-15.1,4l12-2c5-.8,7.5,10,16.6,11.9s5.8-3.9,4.9-5.7c-7.9-14.5,11.3-17.8,7-27.4-2.1-4.5-8.3-5.8-15.1-7.1,5.5-3,15.7-3.1,21.4.2-.4,3.2.8,8.4,2.8,8.3,4,0,5-5,3.6-8.6,4.7-4,14.6-3.2,20.2-1.6l-6.5,4.8c1.1,1.4,4.2,3.7,5.9,4.1s5.8-2.3,7.8-4.1c11.5-.2,12.4,12.1,22.6,18.3-2.7,1.1-7,3.4-7.5,5.5-3.7,14-17.2,22.6-31.8,23.5-3.1,4.7-7.8,7.9-13.7,6.3-11.4-3-23.6,2.2-27.7,12.4l-1.7,4.2c-.3.8-3.5-1.1-3.3-2l.8-3.8.3-9.5c3.8-9.2,17-12.3,26.4-8,.6-4.8,2.9-9.1,6.5-10.8s10.1-.5,14,1.9c11.1-1.6,21.6-11.9,21.3-23.1s-6.7-6.8-9.3-5.7l-10.9,4.5c-.3-3.3-.9-8.5-2.6-11.4l-2.8,14.9c1.5.9,6.6,0,8.7-1.4l6.3-4.2c1.7-1.2,8.2,1.5,8.3,3.8.4,8.7-8.4,19-17.6,19.5-4.4-1.2-9.7-3.4-13.8-1.7s-7.5,5.2-10.2,10c-11.1-1.3-20.6,1.7-27.3,10.9-2.8,3.8-3.4,8.5-2.5,13.5-11.1,5.9-26.9,2.6-34.9-8.6ZM140.9,89.9c-3.6-.6-8.5,2.2-10.9,5-2.8,3.3-4.6,9.2.7,12.1-2.5-7.9,1.4-12.7,10.2-17.1Z"/>
        <path class="st4" d="M182.6,123.2c-9.3,9.3-20.2,16.9-32.3,18.5l-11.7,1.5-12.1,3.5,14.3,3.1c-5.5,9.3-23.1,9.5-30.1,2.9-1-12.5,14.3-19.8,25.9-16.6s11.7-2.4,15.3-5.8c16.3-2.9,29.4-11.1,34.6-28.6,8.6,4.8,9.5,17.2,3.8,24.1s-6.9,8.9-8.1,13.9c9.7.5,10.6-6,11.8-13.5l3.3,9.5c1,2.9-.4,7.8-4.1,9.5-2.3,1-5.7-.6-8.8-3.2l-26.9,2.6,9.2-6.6c6.2-4.5,15.5-6.6,16-14.8Z"/>
        <path class="st4" d="M83.5,140.2c-4.9,1.3-10.3-2.1-10.1-7.4-.7-9.4,11-6.2,11.9-12.6s-1.6-4-2.8-3.8-3.6,1.4-4.8,2.3l-5.1,3.9c-1.2.9-4.7-2.5-5.9-4.1,2.5-2.9,8-6,12.5-5.6s14.9,6.5,17.5,12.5-4,4.6-6.3,4.6c-2.4,0-5.9.4-6.6,1.6s-.6,3.9-.3,8.7Z"/>
        <path class="st4" d="M186.4,149.7c-.4,12.4-31,15.9-36,10.9s.4-3.6,1.5-4.1l15.6-6.5c4.5-1.9,13.5-.6,18.9-.4Z"/>
        <path class="st4" d="M155.7,145c-19.2,7.4-.6,20.2-2.1,37.5l-19.1-24.9c14.1-5,7.8-18.6,21.2-12.7Z"/>
        <path class="st4" d="M199,136.6l-5.1-35.8c8.6,9.8,13.8,29.7,5.1,35.8Z"/>
      </g>
    </g>
    <g id="Chile">
      <path class="st1" d="M111.5,136.7c-1.2.4-4.4,2.4-4.2,3.2,1.2,4.5,16.4,6.6,28.6,2,9.4-3.6,16.6-11.1,19.9-20.6,1.1-3.2,1.8-6.5,1.9-9.9,0,0,0-.1,0-.2v-.8c-.1-.7-.5-1.3-1.1-1.6l-3.1-1.7c-.7-.4-1.6-.3-2.2.2l-1.1.9-1.2.9c-1,.8-2.5.4-3-.7l-1.3-2.6c-.4-.7-1.1-1.2-2-1.1l-3.5.3c-.8,0-1.5.6-1.7,1.3-.5,1.4-.8,2.7-1,4.1l-.4,2.7c-.6,5.4-2.7,18.1-9.7,20.8-3.1,1.2-13.4,2.2-14.8,2.9h0ZM147.2,109.3"/>
      <path class="st3" d="M141.2,110.1c-1,8.6-2.5,16.2-9.1,22.2"/>
      <path class="st2" d="M139.7,102.2c1.6-1.7,4-2.8,6.3-2.7s1.2-.4,1.4-.9c1.3-3.1,1.8-6.6-.5-9.1-1.4-1.6-3.6-1.7-5.3-.6-.7.4-1.5-.2-1.8-.7-.3-.6-.5-1.4.1-2,1-.9,3.3-1.4,4.5-1.2s.4,0,.5,0c1.3.1,1.7.3,2.9,1.1,4.3,2.7,4.9,8.4,4,13.2s-.4,1.5,0,1.7c2.1,1.3,4.1,2.8,5.7,4.9s-.6,3.8-2.3,1.9l-2-2.1c-.4-.2-.8-.2-1.2.1l-4.1,3.2c0,.2-.3.1-.3-.1-.9-1.6-1.6-3.2-2.3-4.8s-.5-.6-.9-.5l-3.9.3c-.9,0-1.3-1-.7-1.6Z"/>
    </g>
  </g>
</svg>