<?xml version="1.0" encoding="UTF-8"?>
<svg id="Layer_1" xmlns="http://www.w3.org/2000/svg" version="1.1" viewBox="0 0 265 256">
  <!-- Generator: Adobe Illustrator 30.3.0, SVG Export Plug-In . SVG Version: 2.1.3 Build 182)  -->
  <defs>
    <style>
      .st0, .st1, .st2 {
        stroke: #000;
        stroke-miterlimit: 10;
        stroke-width: 2px;
      }

      .st3 {
        fill: #c52b28;
      }

      .st4 {
        fill: #fff;
      }

      .st1 {
        fill: #e82b28;
      }

      .st2 {
        fill: #459747;
      }
    </style>
  </defs>
  <rect class="st0" x="42.8" y="38.3" width="179.5" height="179.5" transform="translate(-51.7 131.2) rotate(-45)"/>
  <g>
    <g id="Brain">
      <g>
        <path d="M100.3,164.1c10.4,5.2,20.1,7.1,31.2,5.3l7.5,7.7c14.2,14.6,15.5,29.3,22.1,25.8,1.5-.8,4.4-5,4-6.6l-5-17.3,28.7-4.4c10-1.5,17.6-8.9,20-18.2l13.7-7.8c1.1-.6.5-.4,1.7-.8l.8-.8c.6-1.2,0-.1.6-1.2,5.5-13.4,6.4-26.1,1.1-40.1-3.4-8.9-4.8-16.8-15.5-21.2-12.4-5.2-13.1-21.4-33.1-24.4-11.1-9.7-26.7-9.3-39.8-2.8-13.7-4.9-27.9-4-41.2,1.2-18.4,3.7-35.2,13-41.3,30-12.5,5-17.8,15.4-16.5,27.8-4.2,7.2-6.1,17.1-2.1,24.4,10.2,18.7,34.4,26.1,54.4,16l6.1,6.2M99.2,158.1c-.5,1.1-4.6-1.4-4.4-2.6l1-5.1.4-12.7c5.1-12.3,22.7-16.4,35.3-10.8.9-6.4,3.9-12.2,8.7-14.5,6.7-3.2,13.4-.7,18.7,2.5,14.8-2.1,28.9-15.9,28.4-30.9-.1-4.1-9-9.1-12.5-7.7l-14.6,6c-.3-4.4-1.2-11.3-3.5-15.2l-3.8,19.9c2,1.3,8.9,0,11.7-1.9l8.4-5.7c2.3-1.6,10.9,2,11,5.1.5,11.6-11.3,25.4-23.5,26.1-5.9-1.7-13-4.6-18.5-2.3-5.5,2.3-10,6.9-13.7,13.4-14.8-1.8-27.5,2.3-36.5,14.5-3.7,5-4.5,11.4-3.4,18.1-14.8,7.8-36,3.5-46.7-11.5-4.7-6.5-4.7-15.4-1.4-23.7,4-.3,11.4,5.1,10.9,8.5-.9,6-.8,12.5,1.9,15.5,2.8,3.2,11.2,5.2,15,4.5l6.7-1.1c1.5-.2-2.3-4.6-3.1-5.8l-2.7-4.6c-1.9-3.3,15-2.5,16-5.1l3.3-8.1,10.2-7.3-9.4,2.4c-9.3,2.4-18-23.9-45.8-8.3-1.2-10,6.9-16.9,13.3-17.9l8.6,4.8c1.9,1.1,7.8-3.4,7-5.4-1-2.5-5.8-5.2-11-7.7,3.8-7.8,12.8-15.5,23.6-16.5-4.2,6.4-11,11.3-8.6,19.1,6.4-16.5,26.7-28,44.2-18.5,5.5,3,.9,13.2-3,16-10.1,7.2-7.5,15.5-4.2,27.6-15.4-2.4-20.4-16.7-18.2-28.8.4-2.1,2.5-6.4,4.5-6.6l10.9-.7-4.8-3.7c-1.5-1.2-7,.5-8.5,1.9-5.8,5.4-6.3,13.9-5.4,21.7-7.6-1.3-17.6-.4-20.2,5.4l16-2.7c6.7-1.1,10,13.3,22.2,15.9,2.6.6,7.8-5.2,6.5-7.6-10.5-19.4,15.2-23.8,9.3-36.6-2.8-6.1-11-7.8-20.1-9.5,7.3-4,21-4.2,28.6.3-.5,4.2,1,11.2,3.7,11.1,5.3,0,6.7-6.7,4.8-11.6,6.3-5.3,19.5-4.3,27-2.1l-8.7,6.5c1.5,1.9,5.6,4.9,7.8,5.5,2.7.7,7.7-3.1,10.4-5.4,15.4-.3,16.6,16.2,30.3,24.4-3.6,1.5-9.4,4.6-10.1,7.3-4.9,18.7-23,30.2-42.5,31.4-4.1,6.3-10.5,10.6-18.4,8.5-15.2-4-31.5,3-37,16.6l-2.3,5.7ZM67,144.3c-6.6,1.7-13.8-2.8-13.4-9.9-.9-12.6,14.7-8.3,16-16.9.2-1.6-2.2-5.3-3.8-5.1-1.6.3-4.9,1.9-6.4,3l-6.8,5.2c-1.6,1.2-6.3-3.3-7.9-5.4,3.4-3.9,10.6-8,16.7-7.5,8.1.6,20,8.7,23.4,16.7,1,2.4-5.4,6.2-8.5,6.2-3.2,0-7.9.6-8.9,2.2-1.1,1.9-.8,5.2-.4,11.6ZM160.7,200.9l-25.5-33.2c18.8-6.7,10.5-24.9,28.3-16.9-25.6,9.9-.7,27-2.8,50.1ZM156.4,171.6c-1-1,.6-4.9,1.9-5.4l20.9-8.7c6-2.5,18-.8,25.3-.5-.5,16.6-41.4,21.3-48.2,14.6ZM213.5,151c-3.1,1.4-7.6-.9-11.8-4.3l-36,3.5,12.3-8.8c8.3-6,20.7-8.8,21.4-19.8-12.5,12.4-27,22.6-43.1,24.7l-15.6,2-16.2,4.6,19.1,4.2c-7.4,12.5-30.9,12.7-40.3,3.8-1.4-16.8,19.2-26.4,34.7-22.1,9.1,2.5,15.6-3.2,20.5-7.8,21.9-3.9,39.3-14.8,46.2-38.2,11.5,6.5,12.7,23,5.1,32.2-4.9,6-9.2,11.9-10.9,18.6,12.9.7,14.2-8,15.8-18l4.3,12.7c1.3,3.9-.5,10.5-5.5,12.7ZM221.3,139.5l-6.8-47.8c11.5,13.2,18.4,39.7,6.8,47.8Z"/>
        <path class="st4" d="M41.9,142.9c-4.7-6.5-4.7-15.4-1.4-23.7,4-.3,11.4,5.1,10.9,8.5-.9,6-.8,12.5,1.9,15.5s11.2,5.2,15,4.5l6.7-1.1c1.5-.2-2.3-4.6-3.1-5.8l-2.7-4.6c-1.9-3.3,15-2.5,16-5.1l3.3-8.1,10.2-7.3-9.4,2.4c-9.3,2.4-18-23.9-45.8-8.3-1.2-10,6.9-16.9,13.3-17.9l8.6,4.8c1.9,1.1,7.8-3.4,7-5.4s-5.8-5.2-11-7.7c3.8-7.8,12.8-15.5,23.6-16.5-4.2,6.4-11,11.3-8.6,19.1,6.4-16.5,26.7-28,44.2-18.5s.9,13.2-3,16c-10.1,7.2-7.5,15.5-4.2,27.6-15.4-2.4-20.4-16.7-18.2-28.8.4-2.1,2.5-6.4,4.5-6.6l10.9-.7-4.8-3.7c-1.5-1.2-7,.5-8.5,1.9-5.8,5.4-6.3,13.9-5.4,21.7-7.6-1.3-17.6-.4-20.2,5.4l16-2.7c6.7-1.1,10,13.3,22.2,15.9,2.6.6,7.8-5.2,6.5-7.6-10.5-19.4,15.2-23.8,9.3-36.6-2.8-6.1-11-7.8-20.1-9.5,7.3-4,21-4.2,28.6.3-.5,4.2,1,11.2,3.7,11.1,5.3,0,6.7-6.7,4.8-11.6,6.3-5.3,19.5-4.3,27-2.1l-8.7,6.5c1.5,1.9,5.6,4.9,7.8,5.5s7.7-3.1,10.4-5.4c15.4-.3,16.6,16.2,30.3,24.4-3.6,1.5-9.4,4.6-10.1,7.3-4.9,18.7-23,30.2-42.5,31.4-4.1,6.3-10.5,10.6-18.4,8.5-15.2-4-31.5,3-37,16.6l-2.3,5.7c-.5,1.1-4.6-1.4-4.4-2.6l1-5.1.4-12.7c5.1-12.3,22.7-16.4,35.3-10.8.9-6.4,3.9-12.2,8.7-14.5s13.4-.7,18.7,2.5c14.8-2.1,28.9-15.9,28.4-30.9-.1-4.1-9-9.1-12.5-7.7l-14.6,6c-.3-4.4-1.2-11.3-3.5-15.2l-3.8,19.9c2,1.3,8.9,0,11.7-1.9l8.4-5.7c2.3-1.6,10.9,2,11,5.1.5,11.6-11.3,25.4-23.5,26.1-5.9-1.7-13-4.6-18.5-2.3-5.5,2.3-10,6.9-13.7,13.4-14.8-1.8-27.5,2.3-36.5,14.5-3.7,5-4.5,11.4-3.4,18.1-14.8,7.8-36,3.5-46.7-11.5ZM143.7,77c-4.9-.8-11.3,3-14.6,6.7-3.8,4.4-6.1,12.3.9,16.1-3.3-10.6,1.8-17,13.6-22.9Z"/>
        <path class="st4" d="M199.4,121.6c-12.5,12.4-27,22.6-43.1,24.7l-15.6,2-16.2,4.6,19.1,4.2c-7.4,12.5-30.9,12.7-40.3,3.8-1.4-16.8,19.2-26.4,34.7-22.1,9.1,2.5,15.6-3.2,20.5-7.8,21.9-3.9,39.3-14.8,46.2-38.2,11.5,6.5,12.7,23,5.1,32.2-4.9,6-9.2,11.9-10.9,18.6,12.9.7,14.2-8,15.8-18l4.3,12.7c1.3,3.9-.5,10.5-5.5,12.7-3.1,1.4-7.6-.9-11.8-4.3l-36,3.5,12.3-8.8c8.3-6,20.7-8.8,21.4-19.8Z"/>
        <path class="st4" d="M67,144.3c-6.6,1.7-13.8-2.8-13.4-9.9-.9-12.6,14.7-8.3,16-16.9s-2.2-5.3-3.8-5.1-4.9,1.9-6.4,3l-6.8,5.2c-1.6,1.2-6.3-3.3-7.9-5.4,3.4-3.9,10.6-8,16.7-7.5s20,8.7,23.4,16.7-5.4,6.2-8.5,6.2c-3.2,0-7.9.6-8.9,2.2-1.1,1.9-.8,5.2-.4,11.6Z"/>
        <path class="st4" d="M204.6,157c-.5,16.6-41.4,21.3-48.2,14.6-1-1,.6-4.9,1.9-5.4l20.9-8.7c6-2.5,18-.8,25.3-.5Z"/>
        <path class="st4" d="M163.5,150.8c-25.6,9.9-.7,27-2.8,50.1l-25.5-33.2c18.8-6.7,10.5-24.9,28.3-16.9Z"/>
        <path class="st4" d="M221.3,139.5l-6.8-47.8c11.5,13.2,18.4,39.7,6.8,47.8Z"/>
      </g>
    </g>
    <g id="Chile">
      <path class="st1" d="M104.4,139.7c-1.7.6-5.9,3.2-5.6,4.3,1.6,6,21.9,8.9,38.2,2.7,12.5-4.8,22.2-14.9,26.6-27.5,1.5-4.3,2.4-8.7,2.5-13.2,0,0,0-.2,0-.3v-1.1c-.2-.9-.7-1.7-1.5-2.2l-4.2-2.3c-.9-.5-2.1-.4-3,.3l-1.5,1.2-1.6,1.2c-1.4,1-3.3.5-4-1l-1.7-3.5c-.5-1-1.5-1.6-2.6-1.5l-4.6.4c-1,0-2,.8-2.3,1.8-.6,1.8-1.1,3.6-1.4,5.5l-.6,3.7c-.8,7.2-3.6,24.2-13,27.8-4.2,1.6-17.9,2.9-19.8,3.9h0ZM152.1,103"/>
      <path class="st3" d="M144.1,104c-1.3,11.5-3.4,21.6-12.2,29.7"/>
      <path class="st2" d="M142.1,94.2c2.1-2.3,5.4-3.7,8.5-3.6s1.6-.5,1.9-1.2c1.8-4.2,2.4-8.8-.6-12.2-1.9-2.2-4.8-2.3-7.1-.9-.9.5-2-.3-2.4-.9-.5-.7-.7-1.9.2-2.7,1.3-1.2,4.4-1.9,6-1.6s.6,0,.7,0c1.7.2,2.2.5,3.8,1.5,5.7,3.6,6.5,11.2,5.3,17.6-.3,1.4-.6,2,0,2.3,2.8,1.7,5.5,3.7,7.6,6.6s-.7,5.1-3.1,2.6l-2.7-2.8c-.5-.3-1.1-.2-1.6.1l-5.5,4.3c-.1.2-.4.1-.4-.2-1.2-2.2-2.1-4.3-3.1-6.5s-.7-.8-1.2-.7l-5.2.4c-1.1,0-1.8-1.3-1-2.1Z"/>
    </g>
  </g>
</svg>